<svg width="491" height="344" viewBox="0 0 491 344" fill="none" xmlns="http://www.w3.org/2000/svg">
<g filter="url(#filter0_b_8_425)">
<rect width="491" height="344" rx="20" fill="url(#paint0_linear_8_425)"/>
</g>
<mask id="mask0_8_425" style="mask-type:alpha" maskUnits="userSpaceOnUse" x="0" y="0" width="491" height="344">
<rect width="491" height="344" rx="20" fill="url(#paint1_linear_8_425)"/>
</mask>
<g mask="url(#mask0_8_425)">
<path d="M114 -11C114 -22.0457 122.954 -31 134 -31H585C596.046 -31 605 -22.0457 605 -11V440C605 451.046 596.046 460 585 460H134C122.954 460 114 451.046 114 440V-11Z" fill="url(#paint2_linear_8_425)"/>
<path d="M299.318 211C299.318 190.75 315.724 174.33 335.968 174.33C356.212 174.33 372.627 190.75 372.627 211C372.627 231.25 356.212 247.67 335.968 247.67C315.724 247.67 299.318 231.25 299.318 211ZM279.501 211C279.501 242.196 304.781 267.484 335.968 267.484C367.155 267.484 392.436 242.196 392.436 211C392.436 179.804 367.155 154.516 335.968 154.516C304.781 154.516 279.501 179.804 279.501 211ZM381.475 152.277C381.474 154.887 382.247 157.44 383.696 159.611C385.145 161.782 387.205 163.475 389.616 164.475C392.027 165.475 394.68 165.738 397.24 165.229C399.8 164.721 402.152 163.465 403.998 161.62C405.845 159.774 407.102 157.423 407.613 154.862C408.123 152.302 407.863 149.648 406.865 147.235C405.867 144.823 404.176 142.761 402.007 141.31C399.837 139.858 397.286 139.083 394.676 139.082H394.671C391.173 139.084 387.818 140.474 385.344 142.948C382.869 145.422 381.478 148.777 381.475 152.277V152.277ZM291.541 300.537C280.82 300.049 274.992 298.263 271.12 296.753C265.985 294.754 262.322 292.373 258.471 288.525C254.619 284.678 252.235 281.017 250.245 275.882C248.735 272.01 246.949 266.179 246.462 255.454C245.929 243.859 245.822 240.376 245.822 211.001C245.822 181.626 245.938 178.152 246.462 166.548C246.95 155.823 248.749 150.004 250.245 146.12C252.244 140.985 254.624 137.32 258.471 133.468C262.317 129.615 265.977 127.23 271.12 125.24C274.99 123.73 280.82 121.943 291.541 121.456C303.133 120.922 306.615 120.816 335.968 120.816C365.322 120.816 368.807 120.931 380.409 121.456C391.13 121.944 396.948 123.744 400.83 125.24C405.964 127.23 409.628 129.62 413.479 133.468C417.331 137.315 419.706 140.985 421.705 146.12C423.214 149.992 425 155.823 425.488 166.548C426.021 178.152 426.127 181.626 426.127 211.001C426.127 240.376 426.021 243.85 425.488 255.454C424.999 266.179 423.205 272.008 421.705 275.882C419.706 281.017 417.325 284.682 413.479 288.525C409.633 292.369 405.964 294.754 400.83 296.753C396.959 298.263 391.13 300.05 380.409 300.537C368.817 301.071 365.335 301.177 335.968 301.177C306.601 301.177 303.129 301.071 291.541 300.537V300.537ZM290.631 101.666C278.924 102.199 270.924 104.056 263.938 106.775C256.703 109.584 250.578 113.351 244.458 119.463C238.338 125.576 234.581 131.712 231.774 138.949C229.055 145.942 227.199 153.939 226.666 165.649C226.124 177.378 226 181.128 226 211C226 240.872 226.124 244.622 226.666 256.351C227.199 268.062 229.055 276.058 231.774 283.051C234.581 290.284 238.338 296.427 244.458 302.537C250.577 308.647 256.703 312.409 263.938 315.225C270.937 317.944 278.924 319.801 290.631 320.334C302.362 320.867 306.104 321 335.968 321C365.832 321 369.581 320.876 381.306 320.334C393.014 319.801 401.008 317.944 407.998 315.225C415.229 312.409 421.358 308.649 427.479 302.537C433.599 296.424 437.348 290.284 440.163 283.051C442.881 276.058 444.746 268.061 445.271 256.351C445.804 244.613 445.928 240.872 445.928 211C445.928 181.128 445.804 177.378 445.271 165.649C444.737 153.938 442.881 145.937 440.163 138.949C437.348 131.716 433.589 125.585 427.479 119.463C421.368 113.341 415.229 109.584 408.007 106.775C401.008 104.056 393.013 102.191 381.315 101.666C369.589 101.133 365.841 101 335.977 101C306.113 101 302.362 101.124 290.631 101.666Z" fill="white"/>
</g>
<defs>
<filter id="filter0_b_8_425" x="-120" y="-120" width="731" height="584" filterUnits="userSpaceOnUse" color-interpolation-filters="sRGB">
<feFlood flood-opacity="0" result="BackgroundImageFix"/>
<feGaussianBlur in="BackgroundImageFix" stdDeviation="60"/>
<feComposite in2="SourceAlpha" operator="in" result="effect1_backgroundBlur_8_425"/>
<feBlend mode="normal" in="SourceGraphic" in2="effect1_backgroundBlur_8_425" result="shape"/>
</filter>
<linearGradient id="paint0_linear_8_425" x1="245.5" y1="-2.14999" x2="496.9" y2="267.999" gradientUnits="userSpaceOnUse">
<stop stop-color="#060B26" stop-opacity="0.89"/>
<stop offset="1" stop-color="#1A1F37" stop-opacity="0.5"/>
</linearGradient>
<linearGradient id="paint1_linear_8_425" x1="123.503" y1="150.5" x2="249.737" y2="146.527" gradientUnits="userSpaceOnUse">
<stop stop-color="#0E0D39" stop-opacity="0"/>
<stop offset="1" stop-color="#1A1F37"/>
<stop offset="1" stop-color="#1A1F37"/>
</linearGradient>
<linearGradient id="paint2_linear_8_425" x1="595.563" y1="460" x2="104.563" y2="-31" gradientUnits="userSpaceOnUse">
<stop stop-color="#FBE18A"/>
<stop offset="0.21" stop-color="#FCBB45"/>
<stop offset="0.38" stop-color="#F75274"/>
<stop offset="0.52" stop-color="#D53692"/>
<stop offset="0.74" stop-color="#8F39CE"/>
<stop offset="1" stop-color="#5B4FE9"/>
</linearGradient>
</defs>
</svg>
