<svg width="491" height="344" viewBox="0 0 491 344" fill="none" xmlns="http://www.w3.org/2000/svg">
<g filter="url(#filter0_b_8_329)">
<rect width="491" height="344" rx="20" fill="url(#paint0_linear_8_329)"/>
</g>
<mask id="mask0_8_329" style="mask-type:alpha" maskUnits="userSpaceOnUse" x="0" y="0" width="491" height="344">
<rect width="491" height="344" rx="20" fill="url(#paint1_linear_8_329)"/>
</mask>
<g mask="url(#mask0_8_329)">
<path d="M113 20C113 8.95431 121.954 0 133 0H502C513.046 0 522 8.95431 522 20V389C522 400.046 513.046 409 502 409H133C121.954 409 113 400.046 113 389V20Z" fill="#337FFF"/>
<path d="M367.539 217.814L373.366 180.788H337.469V156.722C337.469 146.597 342.481 136.705 358.506 136.705H375.056V105.175C365.418 103.638 355.679 102.807 345.919 102.688C316.374 102.687 297.085 120.448 297.085 152.556V180.788H264.335V217.814H297.085V307.369H337.469V217.814H367.539Z" fill="white"/>
</g>
<defs>
<filter id="filter0_b_8_329" x="-120" y="-120" width="731" height="584" filterUnits="userSpaceOnUse" color-interpolation-filters="sRGB">
<feFlood flood-opacity="0" result="BackgroundImageFix"/>
<feGaussianBlur in="BackgroundImageFix" stdDeviation="60"/>
<feComposite in2="SourceAlpha" operator="in" result="effect1_backgroundBlur_8_329"/>
<feBlend mode="normal" in="SourceGraphic" in2="effect1_backgroundBlur_8_329" result="shape"/>
</filter>
<linearGradient id="paint0_linear_8_329" x1="245.5" y1="-2.14999" x2="496.9" y2="267.999" gradientUnits="userSpaceOnUse">
<stop stop-color="#060B26" stop-opacity="0.89"/>
<stop offset="1" stop-color="#1A1F37" stop-opacity="0.5"/>
</linearGradient>
<linearGradient id="paint1_linear_8_329" x1="123.503" y1="150.5" x2="249.737" y2="146.527" gradientUnits="userSpaceOnUse">
<stop stop-color="#0E0D39" stop-opacity="0"/>
<stop offset="1" stop-color="#1A1F37"/>
<stop offset="1" stop-color="#1A1F37"/>
</linearGradient>
</defs>
</svg>
