<svg width="491" height="344" viewBox="0 0 491 344" fill="none" xmlns="http://www.w3.org/2000/svg">
<g filter="url(#filter0_b_23_9319)">
<rect width="491" height="344" rx="20" fill="url(#paint0_linear_23_9319)"/>
</g>
<mask id="mask0_23_9319" style="mask-type:alpha" maskUnits="userSpaceOnUse" x="0" y="0" width="491" height="344">
<rect width="491" height="344" rx="20" fill="url(#paint1_linear_23_9319)"/>
</mask>
<g mask="url(#mask0_23_9319)">
<path d="M129 13C129 1.95431 137.954 -7 149 -7H518C529.046 -7 538 1.95431 538 13V382C538 393.046 529.046 402 518 402H149C137.954 402 129 393.046 129 382V13Z" fill="#1B1F23"/>
<path fill-rule="evenodd" clip-rule="evenodd" d="M333.294 86.8055C269.781 86.8055 218.339 138.043 218.339 201.303C218.339 251.969 251.244 294.762 296.939 309.933C302.687 310.935 304.842 307.5 304.842 304.494C304.842 301.775 304.698 292.758 304.698 283.169C275.816 288.465 268.344 276.156 266.045 269.716C264.752 266.424 259.148 256.262 254.262 253.543C250.239 251.396 244.491 246.101 254.118 245.957C263.171 245.814 269.637 254.259 271.793 257.693C282.139 275.011 298.663 270.145 305.273 267.14C306.279 259.697 309.297 254.688 312.602 251.825C287.024 248.963 260.297 239.088 260.297 195.292C260.297 182.841 264.752 172.536 272.08 164.521C270.93 161.658 266.907 149.922 273.23 134.179C273.23 134.179 282.857 131.173 304.842 145.915C314.039 143.339 323.81 142.051 333.581 142.051C343.352 142.051 353.123 143.339 362.32 145.915C384.305 131.03 393.932 134.179 393.932 134.179C400.255 149.922 396.231 161.658 395.082 164.521C402.41 172.536 406.865 182.697 406.865 195.292C406.865 239.231 379.994 248.963 354.417 251.825C358.584 255.404 362.176 262.273 362.176 273.008C362.176 288.322 362.032 300.63 362.032 304.494C362.032 307.5 364.188 311.078 369.935 309.933C415.343 294.762 448.249 251.825 448.249 201.303C448.249 138.043 396.806 86.8055 333.294 86.8055Z" fill="white"/>
</g>
<defs>
<filter id="filter0_b_23_9319" x="-120" y="-120" width="731" height="584" filterUnits="userSpaceOnUse" color-interpolation-filters="sRGB">
<feFlood flood-opacity="0" result="BackgroundImageFix"/>
<feGaussianBlur in="BackgroundImageFix" stdDeviation="60"/>
<feComposite in2="SourceAlpha" operator="in" result="effect1_backgroundBlur_23_9319"/>
<feBlend mode="normal" in="SourceGraphic" in2="effect1_backgroundBlur_23_9319" result="shape"/>
</filter>
<linearGradient id="paint0_linear_23_9319" x1="245.5" y1="-2.14999" x2="496.9" y2="267.999" gradientUnits="userSpaceOnUse">
<stop stop-color="#060B26" stop-opacity="0.89"/>
<stop offset="1" stop-color="#1A1F37" stop-opacity="0.5"/>
</linearGradient>
<linearGradient id="paint1_linear_23_9319" x1="123.503" y1="150.5" x2="249.737" y2="146.527" gradientUnits="userSpaceOnUse">
<stop stop-color="#0E0D39" stop-opacity="0"/>
<stop offset="1" stop-color="#1A1F37"/>
<stop offset="1" stop-color="#1A1F37"/>
</linearGradient>
</defs>
</svg>
