<svg width="491" height="344" viewBox="0 0 491 344" fill="none" xmlns="http://www.w3.org/2000/svg">
<g filter="url(#filter0_b_8_401)">
<rect width="491" height="344" rx="20" fill="url(#paint0_linear_8_401)"/>
</g>
<mask id="mask0_8_401" style="mask-type:alpha" maskUnits="userSpaceOnUse" x="0" y="0" width="491" height="344">
<rect width="491" height="344" rx="20" fill="url(#paint1_linear_8_401)"/>
</mask>
<g mask="url(#mask0_8_401)">
<path d="M115 20C115 8.9543 123.954 0 135 0H538C549.046 0 558 8.9543 558 20V423C558 434.046 549.046 443 538 443H135C123.954 443 115 434.046 115 423V20Z" fill="#006699"/>
<path d="M285.542 311.267V191.6H245.802V311.267H285.546H285.542ZM265.68 175.264C279.536 175.264 288.162 166.075 288.162 154.592C287.902 142.846 279.536 133.914 265.944 133.914C252.343 133.914 243.46 142.846 243.46 154.591C243.46 166.074 252.082 175.263 265.42 175.263H265.677L265.68 175.264ZM307.539 311.267H347.276V244.447C347.276 240.875 347.535 237.294 348.585 234.743C351.457 227.594 357.995 220.194 368.976 220.194C383.352 220.194 389.106 231.167 389.106 247.255V311.267H428.843V242.654C428.843 205.899 409.24 188.794 383.095 188.794C361.659 188.794 352.245 200.786 347.015 208.953H347.279V191.604H307.541C308.06 202.83 307.538 311.271 307.538 311.271L307.539 311.267Z" fill="white"/>
</g>
<defs>
<filter id="filter0_b_8_401" x="-120" y="-120" width="731" height="584" filterUnits="userSpaceOnUse" color-interpolation-filters="sRGB">
<feFlood flood-opacity="0" result="BackgroundImageFix"/>
<feGaussianBlur in="BackgroundImageFix" stdDeviation="60"/>
<feComposite in2="SourceAlpha" operator="in" result="effect1_backgroundBlur_8_401"/>
<feBlend mode="normal" in="SourceGraphic" in2="effect1_backgroundBlur_8_401" result="shape"/>
</filter>
<linearGradient id="paint0_linear_8_401" x1="245.5" y1="-2.14999" x2="496.9" y2="267.999" gradientUnits="userSpaceOnUse">
<stop stop-color="#060B26" stop-opacity="0.89"/>
<stop offset="1" stop-color="#1A1F37" stop-opacity="0.5"/>
</linearGradient>
<linearGradient id="paint1_linear_8_401" x1="123.503" y1="150.5" x2="249.737" y2="146.527" gradientUnits="userSpaceOnUse">
<stop stop-color="#0E0D39" stop-opacity="0"/>
<stop offset="1" stop-color="#1A1F37"/>
<stop offset="1" stop-color="#1A1F37"/>
</linearGradient>
</defs>
</svg>
