<svg width="491" height="344" viewBox="0 0 491 344" fill="none" xmlns="http://www.w3.org/2000/svg">
<g filter="url(#filter0_b_8_305)">
<rect width="491" height="344" rx="20" fill="url(#paint0_linear_8_305)"/>
</g>
<mask id="mask0_8_305" style="mask-type:alpha" maskUnits="userSpaceOnUse" x="0" y="0" width="491" height="344">
<rect width="491" height="344" rx="20" fill="url(#paint1_linear_8_305)"/>
</mask>
<g mask="url(#mask0_8_305)">
<path d="M110 20C110 8.9543 118.954 0 130 0H489C500.046 0 509 8.95431 509 20V379C509 390.046 500.046 399 489 399H130C118.954 399 110 390.046 110 379V20Z" fill="#33CCFF"/>
<path d="M408.527 136.331C401.939 139.169 395.013 141.145 387.92 142.21C391.236 141.641 396.116 135.667 398.058 133.249C401.009 129.601 403.257 125.438 404.69 120.969C404.69 120.637 405.022 120.163 404.69 119.926C404.523 119.834 404.336 119.786 404.145 119.786C403.955 119.786 403.768 119.834 403.6 119.926C395.899 124.1 387.702 127.286 379.204 129.408C378.907 129.499 378.592 129.507 378.292 129.432C377.991 129.357 377.717 129.201 377.498 128.982C376.837 128.193 376.125 127.449 375.366 126.753C371.9 123.645 367.968 121.101 363.713 119.214C357.969 116.856 351.765 115.834 345.569 116.227C339.557 116.607 333.688 118.221 328.326 120.969C323.045 123.865 318.405 127.801 314.682 132.538C310.767 137.414 307.94 143.072 306.392 149.133C305.116 154.898 304.971 160.856 305.966 166.676C305.966 167.672 305.966 167.814 305.113 167.672C271.337 162.693 243.624 150.698 220.98 124.951C219.985 123.814 219.464 123.814 218.658 124.951C208.805 139.934 213.59 163.642 225.906 175.353C227.564 176.918 229.27 178.435 231.07 179.858C225.423 179.456 219.914 177.925 214.869 175.353C213.921 174.737 213.4 175.069 213.353 176.207C213.218 177.784 213.218 179.37 213.353 180.948C214.341 188.509 217.318 195.671 221.979 201.703C226.64 207.734 232.818 212.418 239.881 215.276C241.603 216.014 243.397 216.571 245.234 216.936C240.006 217.966 234.645 218.126 229.365 217.41C228.228 217.173 227.801 217.789 228.228 218.88C235.191 237.846 250.303 243.63 261.388 246.854C262.904 247.091 264.42 247.091 266.126 247.471C266.126 247.471 266.126 247.471 265.841 247.755C262.573 253.729 249.356 257.76 243.292 259.846C232.224 263.825 220.424 265.346 208.71 264.303C206.863 264.018 206.436 264.066 205.963 264.303C205.489 264.54 205.963 265.062 206.484 265.536C208.852 267.1 211.221 268.475 213.684 269.803C221.018 273.806 228.771 276.987 236.802 279.286C278.395 290.76 325.199 282.32 356.418 251.264C380.956 226.893 389.578 193.276 389.578 159.612C389.578 158.331 391.142 157.573 392.042 156.909C398.25 152.067 403.723 146.35 408.29 139.934C409.081 138.978 409.487 137.761 409.427 136.521V136.521C409.427 135.809 409.427 135.952 408.527 136.331Z" fill="white"/>
</g>
<defs>
<filter id="filter0_b_8_305" x="-120" y="-120" width="731" height="584" filterUnits="userSpaceOnUse" color-interpolation-filters="sRGB">
<feFlood flood-opacity="0" result="BackgroundImageFix"/>
<feGaussianBlur in="BackgroundImageFix" stdDeviation="60"/>
<feComposite in2="SourceAlpha" operator="in" result="effect1_backgroundBlur_8_305"/>
<feBlend mode="normal" in="SourceGraphic" in2="effect1_backgroundBlur_8_305" result="shape"/>
</filter>
<linearGradient id="paint0_linear_8_305" x1="245.5" y1="-2.14999" x2="496.9" y2="267.999" gradientUnits="userSpaceOnUse">
<stop stop-color="#060B26" stop-opacity="0.89"/>
<stop offset="1" stop-color="#1A1F37" stop-opacity="0.5"/>
</linearGradient>
<linearGradient id="paint1_linear_8_305" x1="123.503" y1="150.5" x2="249.737" y2="146.527" gradientUnits="userSpaceOnUse">
<stop stop-color="#0E0D39" stop-opacity="0"/>
<stop offset="1" stop-color="#1A1F37"/>
<stop offset="1" stop-color="#1A1F37"/>
</linearGradient>
</defs>
</svg>
