<svg width="12" height="12" viewBox="0 0 12 12" fill="none" xmlns="http://www.w3.org/2000/svg">
<g clip-path="url(#clip0_5_104)">
<path d="M9.72247 3.66546C9.73545 3.65789 9.74621 3.64706 9.75369 3.63403C9.76117 3.62101 9.76511 3.60625 9.76511 3.59123C9.76511 3.57621 9.76117 3.56146 9.75369 3.54843C9.74621 3.53541 9.73545 3.52457 9.72247 3.517L6.44095 1.61048C6.23098 1.48878 5.9926 1.42468 5.74991 1.42468C5.50722 1.42468 5.26883 1.48878 5.05886 1.61048L1.77798 3.517C1.76501 3.52457 1.75425 3.53541 1.74677 3.54843C1.73929 3.56146 1.73535 3.57621 1.73535 3.59123C1.73535 3.60625 1.73929 3.62101 1.74677 3.63403C1.75425 3.64706 1.76501 3.65789 1.77798 3.66546L5.70704 5.97675C5.72026 5.98454 5.73532 5.98864 5.75066 5.98864C5.766 5.98864 5.78106 5.98454 5.79427 5.97675L9.72247 3.66546Z" fill="white"/>
<path d="M1.41016 4.2498C1.39705 4.24223 1.38218 4.23826 1.36705 4.23828C1.35192 4.23831 1.33706 4.24233 1.32398 4.24993C1.3109 4.25754 1.30006 4.26847 1.29256 4.28161C1.28505 4.29475 1.28115 4.30964 1.28125 4.32478V8.06069C1.28158 8.24073 1.32903 8.41754 1.41888 8.57354C1.50874 8.72955 1.63787 8.85931 1.79344 8.94993L5.27735 11.0389C5.2904 11.0464 5.30521 11.0504 5.32029 11.0504C5.33537 11.0504 5.35018 11.0464 5.36324 11.0389C5.37631 11.0313 5.38716 11.0205 5.39471 11.0075C5.40225 10.9944 5.40624 10.9796 5.40625 10.9645V6.63005C5.40624 6.61498 5.40226 6.60018 5.39472 6.58713C5.38717 6.57408 5.37633 6.56325 5.36328 6.55571L1.41016 4.2498Z" fill="white"/>
<path d="M6.09375 6.64508V10.9634C6.09377 10.9785 6.09775 10.9933 6.1053 11.0064C6.11285 11.0194 6.1237 11.0303 6.13676 11.0378C6.14982 11.0453 6.16463 11.0493 6.17971 11.0493C6.19479 11.0493 6.2096 11.0453 6.22266 11.0378L9.70635 8.94885C9.8618 8.85835 9.99087 8.72877 10.0808 8.57297C10.1706 8.41716 10.2182 8.24056 10.2187 8.06069V4.32477C10.2187 4.30971 10.2147 4.29493 10.2071 4.28191C10.1996 4.26889 10.1887 4.25808 10.1756 4.25057C10.1626 4.24307 10.1478 4.23912 10.1327 4.23914C10.1177 4.23915 10.1029 4.24312 10.0898 4.25065L6.13672 6.57096C6.1237 6.57848 6.11288 6.58928 6.10534 6.60229C6.0978 6.61529 6.0938 6.63005 6.09375 6.64508V6.64508Z" fill="white"/>
</g>
<defs>
<clipPath id="clip0_5_104">
<rect width="11" height="11" fill="white" transform="translate(0.25 0.737671)"/>
</clipPath>
</defs>
</svg>
