<svg width="12" height="12" viewBox="0 0 12 12" fill="none" xmlns="http://www.w3.org/2000/svg">
<g clip-path="url(#clip0_23_8545)">
<path d="M6.91048 6.32514C6.92741 6.32515 6.94397 6.32017 6.95807 6.31081C6.97218 6.30144 6.9832 6.28812 6.98977 6.27252C6.99633 6.25691 6.99814 6.23972 6.99496 6.22309C6.99179 6.20646 6.98377 6.19114 6.97192 6.17905L5.28755 4.46631C5.27558 4.45416 5.26026 4.44584 5.24355 4.44242C5.22684 4.439 5.20949 4.44063 5.1937 4.4471C5.17792 4.45358 5.16442 4.4646 5.15493 4.47877C5.14543 4.49295 5.14037 4.50962 5.14038 4.52668V6.06733C5.14038 6.1357 5.16754 6.20128 5.21589 6.24963C5.26424 6.29798 5.32982 6.32514 5.39819 6.32514H6.91048Z" fill="#2D3748"/>
<path d="M4.73218 6.73347C4.64393 6.64642 4.57382 6.54273 4.52588 6.42842C4.47794 6.3141 4.45313 6.19142 4.45288 6.06746V4.0909H2.90601C2.54166 4.09197 2.19255 4.23718 1.93492 4.49481C1.67729 4.75244 1.53208 5.10155 1.53101 5.4659V10.2784C1.53101 10.6431 1.67587 10.9928 1.93373 11.2507C2.1916 11.5085 2.54133 11.6534 2.90601 11.6534H5.99975C6.36443 11.6534 6.71416 11.5085 6.97203 11.2507C7.22989 10.9928 7.37475 10.6431 7.37475 10.2784V7.01277H5.39819C5.27422 7.01259 5.15152 6.98782 5.03719 6.93987C4.92287 6.89193 4.81919 6.82178 4.73218 6.73347V6.73347Z" fill="white"/>
<path d="M8.49194 3.57494H10.0042C10.0212 3.57495 10.0377 3.56997 10.0518 3.56061C10.0659 3.55125 10.077 3.53793 10.0835 3.52232C10.0901 3.50671 10.0919 3.48952 10.0887 3.47289C10.0855 3.45626 10.0775 3.44094 10.0657 3.42885L8.3813 1.71611C8.36933 1.70396 8.35401 1.69564 8.3373 1.69222C8.32059 1.6888 8.30324 1.69043 8.28745 1.69691C8.27167 1.70338 8.25817 1.7144 8.24868 1.72858C8.23918 1.74275 8.23412 1.75943 8.23413 1.77648V3.31713C8.23413 3.3855 8.26129 3.45108 8.30964 3.49943C8.35799 3.54778 8.42357 3.57494 8.49194 3.57494Z" fill="#2D3748"/>
<path d="M8.49194 4.26257C8.24182 4.26066 8.00249 4.16045 7.82562 3.98359C7.64875 3.80672 7.54854 3.56738 7.54663 3.31726V1.3407H5.22632C4.88456 1.3411 4.55691 1.47704 4.31525 1.7187C4.07359 1.96036 3.93765 2.288 3.93726 2.62976V3.4032H4.84218C4.95768 3.40366 5.07196 3.42694 5.17844 3.4717C5.28492 3.51646 5.3815 3.58182 5.46265 3.66402L7.80788 6.04878C7.97149 6.21479 8.06285 6.43875 8.06204 6.67183V9.5907H9.20179C9.90024 9.5907 10.4683 9.01234 10.4683 8.30163V4.26257H8.49194Z" fill="black"/>
</g>
<defs>
<clipPath id="clip0_23_8545">
<rect width="11" height="11" fill="white" transform="translate(0.499756 0.997162)"/>
</clipPath>
</defs>
</svg>
