<svg width="12" height="12" viewBox="0 0 12 12" fill="none" xmlns="http://www.w3.org/2000/svg">
<path d="M5.43599 4.28716C5.43599 4.56646 5.43599 4.83716 5.52407 5.09068C4.5981 6.17778 2.15317 9.05025 1.92544 9.26939C1.88018 9.31 1.84397 9.35968 1.81917 9.4152C1.79437 9.47072 1.78153 9.53084 1.78149 9.59165C1.78149 9.77427 1.89321 9.95044 1.98774 10.0493C2.12954 10.1975 2.7354 10.7583 2.84712 10.6508C3.17798 10.3286 3.24458 10.2426 3.37993 10.1094C3.58403 9.90962 3.35845 9.50142 3.42935 9.33599C3.50024 9.17056 3.57544 9.13833 3.6979 9.11255C3.82036 9.08677 4.03735 9.17485 4.20708 9.177C4.3854 9.17915 4.48208 9.10396 4.61528 8.97935C4.7227 8.88052 4.80005 8.78814 4.8022 8.64419C4.80649 8.45083 4.5272 8.19517 4.7356 7.99107C4.94399 7.78696 5.24478 8.12427 5.46606 8.09849C5.68735 8.07271 5.95591 7.76548 5.98384 7.63443C6.01177 7.50337 5.73247 7.16607 5.77544 6.97485C5.79048 6.9104 5.92153 6.76001 6.02036 6.73853C6.11919 6.71704 6.55747 6.88677 6.6563 6.86529C6.77661 6.8395 6.91626 6.71275 7.03013 6.64185C7.36313 6.78579 7.66606 6.8438 8.05493 6.8438C9.52661 6.8438 10.719 5.69654 10.719 4.28286C10.719 2.86919 9.52661 1.72687 8.05493 1.72687C6.58325 1.72687 5.43599 2.87349 5.43599 4.28716ZM9.34399 3.78937C9.34399 3.92534 9.30367 4.05826 9.22813 4.17132C9.15259 4.28438 9.04521 4.3725 8.91959 4.42453C8.79396 4.47657 8.65573 4.49018 8.52237 4.46366C8.38901 4.43713 8.26651 4.37165 8.17036 4.2755C8.07421 4.17935 8.00873 4.05685 7.9822 3.92349C7.95568 3.79013 7.96929 3.6519 8.02133 3.52627C8.07336 3.40065 8.16148 3.29328 8.27454 3.21773C8.3876 3.14219 8.52052 3.10187 8.65649 3.10187C8.83883 3.10187 9.0137 3.1743 9.14263 3.30323C9.27156 3.43216 9.34399 3.60703 9.34399 3.78937Z" fill="white"/>
</svg>
