<svg width="36" height="31" viewBox="0 0 36 31" fill="none" xmlns="http://www.w3.org/2000/svg">
<path d="M0.5 12.1208C0.5 5.4934 5.87258 0.120819 12.5 0.120819H23.5C30.1274 0.120819 35.5 5.4934 35.5 12.1208V18.5584C35.5 25.1858 30.1274 30.5584 23.5 30.5584H12.5C5.87258 30.5584 0.5 25.1858 0.5 18.5584V12.1208Z" fill="white"/>
<path d="M18 7.51279C13.0312 7.51279 9 11.0185 9 15.3396C9 19.6606 13.0312 23.1664 18 23.1664C22.9687 23.1664 27 19.6606 27 15.3396C27 11.0185 22.9687 7.51279 18 7.51279ZM17.7187 19.9052C17.5333 19.9052 17.3521 19.8574 17.1979 19.7678C17.0437 19.6782 16.9236 19.5509 16.8526 19.4019C16.7817 19.253 16.7631 19.089 16.7993 18.9309C16.8354 18.7727 16.9247 18.6275 17.0558 18.5134C17.1869 18.3994 17.354 18.3218 17.5359 18.2903C17.7177 18.2589 17.9062 18.275 18.0775 18.3367C18.2488 18.3984 18.3952 18.5029 18.4983 18.637C18.6013 18.7711 18.6562 18.9287 18.6562 19.0899C18.6562 19.3062 18.5575 19.5135 18.3817 19.6664C18.2058 19.8193 17.9674 19.9052 17.7187 19.9052V19.9052ZM19.2862 15.7472C18.5264 16.1908 18.4219 16.5972 18.4219 16.9702C18.4219 17.1215 18.3527 17.2667 18.2297 17.3737C18.1066 17.4808 17.9397 17.5409 17.7656 17.5409C17.5916 17.5409 17.4247 17.4808 17.3016 17.3737C17.1785 17.2667 17.1094 17.1215 17.1094 16.9702C17.1094 16.077 17.5819 15.3669 18.5541 14.7991C19.4578 14.2716 19.9687 13.9373 19.9687 13.2023C19.9687 12.7025 19.6406 12.323 18.9614 12.0421C18.8016 11.9761 18.4458 11.9117 18.008 11.9162C17.4586 11.9223 17.032 12.0364 16.7034 12.2664C16.0837 12.7001 16.0312 13.1721 16.0312 13.1791C16.0271 13.254 16.006 13.3275 15.9692 13.3954C15.9324 13.4632 15.8805 13.5241 15.8167 13.5746C15.7528 13.625 15.6781 13.664 15.5969 13.6893C15.5157 13.7147 15.4295 13.7259 15.3434 13.7223C15.2572 13.7186 15.1727 13.7003 15.0946 13.6683C15.0166 13.6363 14.9466 13.5912 14.8886 13.5356C14.8306 13.4801 14.7857 13.4152 14.7566 13.3445C14.7275 13.2739 14.7146 13.199 14.7187 13.124C14.7239 13.025 14.8031 12.1326 15.8798 11.3793C16.4381 10.9888 17.1483 10.7858 17.9892 10.7768C18.5845 10.7707 19.1437 10.8583 19.523 11.0141C20.6578 11.4808 21.2812 12.259 21.2812 13.2023C21.2812 14.5814 20.2214 15.2006 19.2862 15.7472Z" fill="#0075FF"/>
</svg>
