<svg width="12" height="12" viewBox="0 0 12 12" fill="none" xmlns="http://www.w3.org/2000/svg">
<path d="M10.712 3.08936C10.6872 3.04122 10.6515 2.99961 10.6076 2.96791C10.5637 2.93621 10.513 2.91532 10.4595 2.90695C10.406 2.89857 10.3513 2.90294 10.2998 2.91971C10.2483 2.93647 10.2016 2.96516 10.1633 3.00343L8.84328 4.32429C8.77848 4.38814 8.69116 4.42394 8.60018 4.42394C8.50921 4.42394 8.42189 4.38814 8.35709 4.32429L7.78646 3.7528C7.75453 3.72088 7.72921 3.68298 7.71193 3.64127C7.69465 3.59956 7.68575 3.55486 7.68575 3.50971C7.68575 3.46456 7.69465 3.41985 7.71193 3.37814C7.72921 3.33643 7.75453 3.29853 7.78646 3.26661L9.10088 1.95198C9.14028 1.91258 9.16952 1.8642 9.18606 1.81099C9.20261 1.75779 9.20598 1.70135 9.19588 1.64656C9.18577 1.59176 9.1625 1.54024 9.12806 1.49644C9.09362 1.45263 9.04905 1.41786 8.99818 1.39511V1.39511C8.00539 0.951241 6.76617 1.18284 5.98478 1.95843C5.32092 2.61757 5.12305 3.64753 5.4423 4.78427C5.45952 4.84489 5.45962 4.90909 5.44259 4.96976C5.42556 5.03043 5.39208 5.0852 5.34584 5.12802L1.76912 8.39471C1.62978 8.51982 1.51739 8.672 1.4388 8.84197C1.36022 9.01195 1.31708 9.19615 1.31203 9.38334C1.30697 9.57053 1.3401 9.75679 1.40941 9.93076C1.47871 10.1047 1.58272 10.2627 1.71511 10.3952C1.84749 10.5276 2.00547 10.6317 2.1794 10.7011C2.35334 10.7705 2.53958 10.8037 2.72678 10.7987C2.91397 10.7937 3.09819 10.7507 3.2682 10.6722C3.43821 10.5937 3.59044 10.4813 3.71561 10.3421L7.01732 6.75739C7.05952 6.71175 7.11337 6.67848 7.17307 6.66118C7.23278 6.64388 7.29607 6.6432 7.35613 6.65921C7.67976 6.74788 8.01359 6.79389 8.34914 6.79606C9.06672 6.79606 9.69642 6.56382 10.1506 6.1163C10.9917 5.28765 11.12 3.88214 10.712 3.08936ZM2.76149 10.1068C2.61999 10.1222 2.47719 10.0934 2.35279 10.0242C2.22839 9.95505 2.12852 9.84898 2.06698 9.72064C2.00543 9.59229 1.98524 9.44801 2.00918 9.3077C2.03313 9.1674 2.10003 9.03798 2.20066 8.93731C2.30129 8.83665 2.43069 8.7697 2.57099 8.7457C2.71129 8.72171 2.85557 8.74185 2.98394 8.80335C3.1123 8.86485 3.21842 8.96468 3.28763 9.08905C3.35684 9.21343 3.38575 9.35622 3.37035 9.49772C3.35341 9.65341 3.28383 9.79865 3.17311 9.90941C3.06239 10.0202 2.91717 10.0898 2.76149 10.1068V10.1068Z" fill="white"/>
</svg>
