<svg width="12" height="12" viewBox="0 0 12 12" fill="none" xmlns="http://www.w3.org/2000/svg">
<path d="M10.7122 3.08936C10.6875 3.04122 10.6517 2.99961 10.6078 2.96791C10.5639 2.93621 10.5132 2.91532 10.4597 2.90695C10.4062 2.89857 10.3515 2.90294 10.3001 2.91971C10.2486 2.93647 10.2018 2.96516 10.1635 3.00343L8.84352 4.32429C8.77873 4.38814 8.6914 4.42394 8.60043 4.42394C8.50945 4.42394 8.42213 4.38814 8.35733 4.32429L7.78671 3.7528C7.75478 3.72088 7.72945 3.68298 7.71217 3.64127C7.69489 3.59956 7.686 3.55486 7.686 3.50971C7.686 3.46456 7.69489 3.41985 7.71217 3.37814C7.72945 3.33643 7.75478 3.29853 7.78671 3.26661L9.10112 1.95198C9.14052 1.91258 9.16976 1.8642 9.18631 1.81099C9.20286 1.75779 9.20622 1.70135 9.19612 1.64656C9.18601 1.59176 9.16274 1.54024 9.1283 1.49644C9.09386 1.45263 9.04929 1.41786 8.99843 1.39511V1.39511C8.00563 0.951241 6.76642 1.18284 5.98503 1.95843C5.32116 2.61757 5.12329 3.64753 5.44255 4.78427C5.45976 4.84489 5.45986 4.90909 5.44283 4.96976C5.42581 5.03043 5.39232 5.0852 5.34608 5.12802L1.76937 8.39471C1.63003 8.51982 1.51764 8.672 1.43905 8.84197C1.36046 9.01195 1.31732 9.19615 1.31227 9.38334C1.30722 9.57053 1.34035 9.75679 1.40965 9.93076C1.47895 10.1047 1.58297 10.2627 1.71535 10.3952C1.84773 10.5276 2.00571 10.6317 2.17965 10.7011C2.35358 10.7705 2.53983 10.8037 2.72702 10.7987C2.91422 10.7937 3.09844 10.7507 3.26845 10.6722C3.43845 10.5937 3.59068 10.4813 3.71585 10.3421L7.01757 6.75739C7.05976 6.71175 7.11361 6.67848 7.17332 6.66118C7.23302 6.64388 7.29631 6.6432 7.35638 6.65921C7.68 6.74788 8.01383 6.79389 8.34938 6.79606C9.06696 6.79606 9.69667 6.56382 10.1508 6.1163C10.992 5.28765 11.1202 3.88214 10.7122 3.08936ZM2.76173 10.1068C2.62023 10.1222 2.47743 10.0934 2.35303 10.0242C2.22863 9.95505 2.12877 9.84898 2.06722 9.72064C2.00568 9.59229 1.98548 9.44801 2.00943 9.3077C2.03337 9.1674 2.10028 9.03798 2.20091 8.93731C2.30154 8.83665 2.43093 8.7697 2.57123 8.7457C2.71153 8.72171 2.85582 8.74185 2.98418 8.80335C3.11255 8.86485 3.21866 8.96468 3.28787 9.08905C3.35709 9.21343 3.38599 9.35622 3.3706 9.49772C3.35366 9.65341 3.28407 9.79865 3.17335 9.90941C3.06263 10.0202 2.91741 10.0898 2.76173 10.1068V10.1068Z" fill="white"/>
</svg>
