<svg width="12" height="12" viewBox="0 0 12 12" fill="none" xmlns="http://www.w3.org/2000/svg">
<g clip-path="url(#clip0_23_8861)">
<path d="M6.91072 6.32514C6.92765 6.32515 6.94421 6.32017 6.95832 6.31081C6.97242 6.30144 6.98345 6.28812 6.99001 6.27252C6.99658 6.25691 6.99838 6.23972 6.99521 6.22309C6.99203 6.20646 6.98402 6.19114 6.97217 6.17905L5.28779 4.46631C5.27582 4.45416 5.26051 4.44584 5.24379 4.44242C5.22708 4.439 5.20973 4.44063 5.19395 4.4471C5.17816 4.45358 5.16467 4.4646 5.15517 4.47877C5.14567 4.49295 5.14061 4.50962 5.14063 4.52668V6.06733C5.14063 6.1357 5.16779 6.20128 5.21614 6.24963C5.26449 6.29798 5.33006 6.32514 5.39844 6.32514H6.91072Z" fill="#2D3748"/>
<path d="M4.73242 6.73347C4.64418 6.64642 4.57406 6.54273 4.52612 6.42842C4.47818 6.3141 4.45337 6.19142 4.45312 6.06746V4.0909H2.90625C2.54191 4.09197 2.1928 4.23718 1.93517 4.49481C1.67754 4.75244 1.53233 5.10155 1.53125 5.4659V10.2784C1.53125 10.6431 1.67612 10.9928 1.93398 11.2507C2.19184 11.5085 2.54158 11.6534 2.90625 11.6534H6C6.36467 11.6534 6.71441 11.5085 6.97227 11.2507C7.23013 10.9928 7.375 10.6431 7.375 10.2784V7.01277H5.39844C5.27447 7.01259 5.15176 6.98782 5.03744 6.93987C4.92311 6.89193 4.81944 6.82178 4.73242 6.73347V6.73347Z" fill="white"/>
<path d="M8.49219 3.57494H10.0045C10.0214 3.57495 10.038 3.56997 10.0521 3.56061C10.0662 3.55125 10.0772 3.53793 10.0838 3.52232C10.0903 3.50671 10.0921 3.48952 10.089 3.47289C10.0858 3.45626 10.0778 3.44094 10.0659 3.42885L8.38154 1.71611C8.36957 1.70396 8.35426 1.69564 8.33754 1.69222C8.32083 1.6888 8.30348 1.69043 8.2877 1.69691C8.27191 1.70338 8.25842 1.7144 8.24892 1.72858C8.23942 1.74275 8.23436 1.75943 8.23438 1.77648V3.31713C8.23438 3.3855 8.26154 3.45108 8.30989 3.49943C8.35824 3.54778 8.42381 3.57494 8.49219 3.57494Z" fill="#2D3748"/>
<path d="M8.49219 4.26257C8.24206 4.26066 8.00273 4.16045 7.82586 3.98359C7.64899 3.80672 7.54878 3.56738 7.54687 3.31726V1.3407H5.22656C4.8848 1.3411 4.55716 1.47704 4.3155 1.7187C4.07384 1.96036 3.9379 2.288 3.9375 2.62976V3.4032H4.84242C4.95793 3.40366 5.0722 3.42694 5.17868 3.4717C5.28516 3.51646 5.38175 3.58182 5.46289 3.66402L7.80812 6.04878C7.97174 6.21479 8.06309 6.43875 8.06228 6.67183V9.5907H9.20203C9.90049 9.5907 10.4685 9.01234 10.4685 8.30163V4.26257H8.49219Z" fill="black"/>
</g>
<defs>
<clipPath id="clip0_23_8861">
<rect width="11" height="11" fill="white" transform="translate(0.5 0.997162)"/>
</clipPath>
</defs>
</svg>
