<svg width="19" height="19" viewBox="0 0 19 19" fill="none" xmlns="http://www.w3.org/2000/svg">
<g filter="url(#filter0_b_23_8831)">
<rect x="0.897461" y="0.554443" width="17.8323" height="17.8323" rx="8" fill="url(#paint0_linear_23_8831)"/>
</g>
<g clip-path="url(#clip0_23_8831)">
<path d="M6.72705 11.343V12.3855C6.72705 12.4815 6.8025 12.5569 6.89852 12.5569H7.94102C7.9856 12.5569 8.03018 12.5398 8.06104 12.5055L11.8058 8.76414L10.5198 7.47816L6.77849 11.2195C6.7442 11.2538 6.72705 11.295 6.72705 11.343ZM12.8003 7.76965C12.9341 7.63591 12.9341 7.41986 12.8003 7.28612L11.9979 6.48367C11.8641 6.34993 11.6481 6.34993 11.5143 6.48367L10.8868 7.11123L12.1728 8.39721L12.8003 7.76965V7.76965Z" fill="white"/>
</g>
<defs>
<filter id="filter0_b_23_8831" x="-119.103" y="-119.446" width="257.833" height="257.832" filterUnits="userSpaceOnUse" color-interpolation-filters="sRGB">
<feFlood flood-opacity="0" result="BackgroundImageFix"/>
<feGaussianBlur in="BackgroundImageFix" stdDeviation="60"/>
<feComposite in2="SourceAlpha" operator="in" result="effect1_backgroundBlur_23_8831"/>
<feBlend mode="normal" in="SourceGraphic" in2="effect1_backgroundBlur_23_8831" result="shape"/>
</filter>
<linearGradient id="paint0_linear_23_8831" x1="5.83955" y1="2.05775" x2="18.4616" y2="16.4631" gradientUnits="userSpaceOnUse">
<stop stop-color="#060B28" stop-opacity="0.94"/>
<stop offset="1" stop-color="#0A0E23" stop-opacity="0.49"/>
<stop offset="1" stop-color="#0A0E23" stop-opacity="0.69"/>
</linearGradient>
<clipPath id="clip0_23_8831">
<rect width="8.23029" height="8.23029" fill="white" transform="translate(5.69824 5.35547)"/>
</clipPath>
</defs>
</svg>
