<svg width="342" height="177" viewBox="0 0 342 177" fill="none" xmlns="http://www.w3.org/2000/svg">
<mask id="mask0_23_473" style="mask-type:alpha" maskUnits="userSpaceOnUse" x="0" y="0" width="342" height="177">
<rect width="341.773" height="176.891" rx="10" fill="white"/>
</mask>
<g mask="url(#mask0_23_473)">
<path d="M0 -66C0 -77.0457 8.95431 -86 20 -86H328C339.046 -86 348 -77.0457 348 -66V242C348 253.046 339.046 262 328 262H20C8.95431 262 0 253.046 0 242V-66Z" fill="#006699"/>
<path d="M133.97 158.517V64.5119H102.752V158.517H133.973H133.97ZM118.367 51.6794C129.252 51.6794 136.028 44.4609 136.028 35.4399C135.824 26.2133 129.252 19.1963 118.574 19.1963C107.89 19.1963 100.912 26.2133 100.912 35.4391C100.912 44.4601 107.685 51.6786 118.163 51.6786H118.365L118.367 51.6794ZM151.25 158.517H182.465V106.026C182.465 103.22 182.669 100.407 183.494 98.4028C185.749 92.7871 190.886 86.974 199.512 86.974C210.805 86.974 215.325 95.5938 215.325 108.232V158.517H246.54V104.617C246.54 75.7442 231.141 62.3081 210.603 62.3081C193.764 62.3081 186.369 71.728 182.26 78.1438H182.468V64.5152H151.251C151.659 73.334 151.249 158.52 151.249 158.52L151.25 158.517Z" fill="white"/>
</g>
</svg>
