<svg width="342" height="178" viewBox="0 0 342 178" fill="none" xmlns="http://www.w3.org/2000/svg">
<mask id="mask0_23_8919" style="mask-type:alpha" maskUnits="userSpaceOnUse" x="0" y="0" width="342" height="178">
<rect x="0.168945" y="0.604111" width="341.773" height="176.891" rx="10" fill="white"/>
</mask>
<g mask="url(#mask0_23_8919)">
<mask id="mask1_23_8919" style="mask-type:alpha" maskUnits="userSpaceOnUse" x="0" y="0" width="342" height="178">
<rect x="0.111328" y="0.60408" width="341.773" height="176.891" rx="10" fill="white"/>
<rect x="0.111328" y="0.60408" width="341.773" height="176.891" rx="10" stroke="black"/>
</mask>
<g mask="url(#mask1_23_8919)">
<path d="M-22 -73C-22 -84.0457 -13.0457 -93 -2 -93H328C339.046 -93 348 -84.0457 348 -73V257C348 268.046 339.046 277 328 277H-1.99999C-13.0457 277 -22 268.046 -22 257V-73Z" fill="#1B1F23"/>
<path fill-rule="evenodd" clip-rule="evenodd" d="M162.813 -8.13928C105.357 -8.13928 58.8198 38.2127 58.8198 95.4407C58.8198 141.275 88.588 179.988 129.925 193.712C135.125 194.618 137.075 191.511 137.075 188.792C137.075 186.332 136.945 178.175 136.945 169.5C110.817 174.291 104.057 163.156 101.977 157.33C100.807 154.352 95.7375 145.159 91.3178 142.699C87.678 140.757 82.4784 135.966 91.1878 135.837C99.3773 135.707 105.227 143.346 107.177 146.454C116.536 162.12 131.485 157.718 137.465 154.999C138.375 148.266 141.105 143.735 144.095 141.145C120.956 138.556 96.7775 129.622 96.7775 90.0027C96.7775 78.7384 100.807 69.4162 107.437 62.1656C106.397 59.5761 102.757 48.9592 108.477 34.7169C108.477 34.7169 117.186 31.9979 137.075 45.3339C145.394 43.0033 154.234 41.838 163.073 41.838C171.913 41.838 180.752 43.0033 189.072 45.3339C208.961 31.8685 217.67 34.7169 217.67 34.7169C223.39 48.9592 219.75 59.5761 218.71 62.1656C225.34 69.4162 229.369 78.6089 229.369 90.0027C229.369 129.752 205.061 138.556 181.922 141.145C185.692 144.382 188.942 150.597 188.942 160.308C188.942 174.161 188.812 185.296 188.812 188.792C188.812 191.511 190.762 194.748 195.961 193.712C237.039 179.988 266.807 141.145 266.807 95.4407C266.807 38.2127 220.27 -8.13928 162.813 -8.13928Z" fill="white"/>
</g>
</g>
</svg>
