<svg width="16" height="14" viewBox="0 0 16 14" fill="none" xmlns="http://www.w3.org/2000/svg">
<path d="M13.0391 6.32802H8.9375C8.56454 6.32802 8.20685 6.19813 7.94313 5.96694C7.67941 5.73575 7.53125 5.42218 7.53125 5.09522V1.49958C7.53125 1.47234 7.5189 1.44621 7.49693 1.42694C7.47495 1.40767 7.44514 1.39685 7.41406 1.39685H4.71875C4.22147 1.39685 3.74456 1.57003 3.39292 1.87829C3.04129 2.18654 2.84375 2.60463 2.84375 3.04057V11.2592C2.84375 11.6951 3.04129 12.1132 3.39292 12.4215C3.74456 12.7297 4.22147 12.9029 4.71875 12.9029H11.2812C11.7785 12.9029 12.2554 12.7297 12.6071 12.4215C12.9587 12.1132 13.1562 11.6951 13.1562 11.2592V6.43075C13.1562 6.4035 13.1439 6.37737 13.1219 6.35811C13.0999 6.33884 13.0701 6.32802 13.0391 6.32802Z" fill="#0075FF"/>
<path d="M12.7818 5.41925L8.56865 1.72575C8.56046 1.71861 8.55004 1.71375 8.53871 1.71179C8.52737 1.70983 8.51563 1.71084 8.50495 1.71471C8.49428 1.71858 8.48514 1.72513 8.4787 1.73354C8.47226 1.74195 8.4688 1.75184 8.46875 1.76197V5.0959C8.46875 5.20488 8.51814 5.30941 8.60604 5.38647C8.69395 5.46353 8.81318 5.50683 8.9375 5.50683H12.7405C12.7521 5.50679 12.7634 5.50375 12.773 5.4981C12.7825 5.49246 12.79 5.48445 12.7944 5.47509C12.7988 5.46573 12.8 5.45544 12.7978 5.4455C12.7955 5.43557 12.79 5.42643 12.7818 5.41925V5.41925Z" fill="#0075FF"/>
</svg>
