<svg width="24" height="22" viewBox="0 0 24 22" fill="none" xmlns="http://www.w3.org/2000/svg">
<path d="M12 3.28418C7.03125 3.28418 3 6.81818 3 11.174C3 15.5299 7.03125 19.0639 12 19.0639C16.9687 19.0639 21 15.5299 21 11.174C21 6.81818 16.9687 3.28418 12 3.28418ZM11.7187 15.7765C11.5333 15.7765 11.3521 15.7283 11.1979 15.638C11.0437 15.5477 10.9236 15.4193 10.8526 15.2691C10.7817 15.1189 10.7631 14.9537 10.7993 14.7943C10.8354 14.6348 10.9247 14.4884 11.0558 14.3735C11.1869 14.2585 11.354 14.1802 11.5359 14.1485C11.7177 14.1168 11.9062 14.1331 12.0775 14.1953C12.2488 14.2575 12.3952 14.3628 12.4983 14.498C12.6013 14.6332 12.6562 14.7921 12.6562 14.9546C12.6562 15.1726 12.5575 15.3816 12.3817 15.5358C12.2058 15.6899 11.9674 15.7765 11.7187 15.7765V15.7765ZM13.2862 11.585C12.5264 12.0321 12.4219 12.4418 12.4219 12.8178C12.4219 12.9703 12.3527 13.1167 12.2297 13.2246C12.1066 13.3325 11.9397 13.3931 11.7656 13.3931C11.5916 13.3931 11.4247 13.3325 11.3016 13.2246C11.1785 13.1167 11.1094 12.9703 11.1094 12.8178C11.1094 11.9174 11.5819 11.2016 12.5541 10.6292C13.4578 10.0974 13.9687 9.76044 13.9687 9.01954C13.9687 8.51574 13.6406 8.13316 12.9614 7.85003C12.8016 7.78346 12.4458 7.71853 12.008 7.72305C11.4586 7.72922 11.032 7.84428 10.7034 8.07604C10.0837 8.51327 10.0312 8.98913 10.0312 8.99611C10.0271 9.07166 10.006 9.14576 9.96919 9.21416C9.93237 9.28257 9.88054 9.34394 9.81666 9.39479C9.75279 9.44564 9.67811 9.48495 9.5969 9.5105C9.51569 9.53605 9.42954 9.54732 9.34336 9.54368C9.25718 9.54004 9.17266 9.52155 9.09463 9.48927C9.0166 9.45699 8.94659 9.41156 8.88859 9.35556C8.83059 9.29957 8.78574 9.2341 8.75659 9.16291C8.72745 9.09172 8.71459 9.01619 8.71875 8.94064C8.7239 8.84078 8.80312 7.94126 9.87984 7.18186C10.4381 6.78818 11.1483 6.58354 11.9892 6.5745C12.5845 6.56834 13.1437 6.65669 13.523 6.81366C14.6578 7.28418 15.2812 8.06864 15.2812 9.01954C15.2812 10.4097 14.2214 11.0339 13.2862 11.585Z" fill="#0075FF"/>
</svg>
