<svg width="16" height="14" viewBox="0 0 16 14" fill="none" xmlns="http://www.w3.org/2000/svg">
<path d="M14.4934 1.55808C14.488 1.53537 14.4754 1.51446 14.457 1.49781C14.4386 1.48116 14.4151 1.46946 14.3894 1.46408C12.6735 1.0963 8.70871 2.40691 6.56066 4.28923C6.17754 4.62238 5.82827 4.98417 5.51682 5.37049C4.85442 5.31912 4.19201 5.36202 3.62746 5.57775C2.03459 6.19235 1.57082 7.79601 1.44162 8.48586C1.4343 8.52362 1.43706 8.56235 1.4497 8.59901C1.46234 8.63568 1.48451 8.66927 1.51447 8.69715C1.54442 8.72503 1.58135 8.74643 1.62234 8.75968C1.66333 8.77293 1.70727 8.77767 1.75071 8.77351L4.30861 8.52618C4.31044 8.69524 4.32208 8.86411 4.34348 9.03214C4.35635 9.14882 4.41543 9.25787 4.51047 9.34034L5.501 10.2066C5.59516 10.2898 5.7195 10.3416 5.85256 10.353C6.04315 10.3717 6.23471 10.3819 6.42648 10.3836L6.14582 12.6232C6.14114 12.6612 6.14658 12.6997 6.16171 12.7356C6.17685 12.7715 6.20127 12.8039 6.23306 12.8301C6.26485 12.8564 6.30314 12.8758 6.34493 12.8869C6.38673 12.898 6.43088 12.9005 6.47395 12.8941C7.25939 12.7837 9.09191 12.3771 9.78889 10.9807C10.035 10.4858 10.0854 9.90793 10.0285 9.33006C10.4703 9.05701 10.8841 8.75073 11.2652 8.41472C13.4199 6.53522 14.9065 3.13708 14.4934 1.55808ZM9.11535 6.17258C8.91859 6.0002 8.78457 5.78054 8.73023 5.54138C8.6759 5.30222 8.70369 5.0543 8.8101 4.82899C8.91651 4.60368 9.09675 4.4111 9.32803 4.2756C9.5593 4.14011 9.83122 4.06778 10.1094 4.06778C10.3876 4.06778 10.6595 4.14011 10.8908 4.2756C11.122 4.4111 11.3023 4.60368 11.4087 4.82899C11.5151 5.0543 11.5429 5.30222 11.4886 5.54138C11.4342 5.78054 11.3002 6.0002 11.1034 6.17258C10.973 6.28712 10.818 6.37799 10.6474 6.43999C10.4769 6.50199 10.294 6.5339 10.1094 6.5339C9.92475 6.5339 9.74191 6.50199 9.57134 6.43999C9.40077 6.37799 9.24582 6.28712 9.11535 6.17258Z" fill="#0075FF"/>
<path d="M5.43359 10.8342C5.27305 10.9752 5.01553 11.0301 4.70557 11.0771C4.00918 11.1811 3.39424 10.6536 3.51934 10.0364C3.56709 9.80247 3.7083 9.4745 3.79619 9.39745C3.8154 9.38093 3.82819 9.35953 3.83273 9.33628C3.83728 9.31303 3.83336 9.28912 3.82152 9.26793C3.80968 9.24675 3.79053 9.22938 3.76679 9.21828C3.74305 9.20718 3.71592 9.20292 3.68926 9.20611C3.29983 9.24788 2.93754 9.40266 2.66006 9.6458C1.97129 10.2501 1.90625 12.4925 1.90625 12.4925C1.90625 12.4925 4.46562 12.4355 5.15439 11.8312C5.43261 11.5881 5.60939 11.27 5.65625 10.9282C5.66709 10.8208 5.51797 10.7569 5.43359 10.8342Z" fill="#0075FF"/>
</svg>
