<svg width="15" height="14" viewBox="0 0 15 14" fill="none" xmlns="http://www.w3.org/2000/svg">
<g clip-path="url(#clip0_27_2961)">
<path d="M9.74522 1.68737C9.1751 1.15208 8.37881 0.8573 7.49991 0.8573C6.61631 0.8573 5.81739 1.1503 5.24991 1.68227C4.67627 2.22011 4.39678 2.95107 4.46241 3.74038C4.59248 5.29759 5.95508 6.56435 7.49991 6.56435C9.04473 6.56435 10.405 5.29784 10.5371 3.74089C10.6036 2.95872 10.3224 2.22928 9.74522 1.68737Z" fill="white"/>
<path d="M12.6562 12.2708H2.34373C2.20875 12.2723 2.07508 12.2477 1.95243 12.1986C1.82979 12.1495 1.72126 12.0773 1.63475 11.9872C1.44432 11.7893 1.36756 11.5189 1.4244 11.2456C1.67166 10.0527 2.44334 9.05063 3.65623 8.34719C4.73377 7.72273 6.09871 7.37903 7.49998 7.37903C8.90125 7.37903 10.2662 7.72298 11.3437 8.34719C12.5566 9.05038 13.3283 10.0524 13.5756 11.2453C13.6324 11.5187 13.5556 11.789 13.3652 11.987C13.2787 12.0771 13.1702 12.1494 13.0476 12.1985C12.9249 12.2476 12.7912 12.2723 12.6562 12.2708V12.2708Z" fill="white"/>
</g>
<defs>
<clipPath id="clip0_27_2961">
<rect width="15" height="13.0447" fill="white" transform="translate(0 0.0421753)"/>
</clipPath>
</defs>
</svg>
