<svg width="16" height="14" viewBox="0 0 16 14" fill="none" xmlns="http://www.w3.org/2000/svg">
<g clip-path="url(#clip0_8_257)">
<path d="M10.2452 1.75314C9.6751 1.21354 8.87881 0.916382 7.99991 0.916382C7.11631 0.916382 6.31739 1.21174 5.74991 1.748C5.17627 2.29017 4.89678 3.02702 4.96241 3.82269C5.09248 5.39244 6.45508 6.66941 7.99991 6.66941C9.54473 6.66941 10.905 5.3927 11.0371 3.8232C11.1036 3.03473 10.8224 2.29942 10.2452 1.75314Z" fill="white"/>
<path d="M13.1562 12.4219H2.84367C2.70869 12.4234 2.57502 12.3986 2.45237 12.3491C2.32973 12.2997 2.2212 12.2269 2.13469 12.136C1.94426 11.9365 1.8675 11.664 1.92434 11.3884C2.1716 10.1859 2.94328 9.17579 4.15617 8.46668C5.23371 7.83719 6.59865 7.49072 7.99992 7.49072C9.40119 7.49072 10.7661 7.83745 11.8437 8.46668C13.0566 9.17554 13.8282 10.1857 14.0755 11.3881C14.1323 11.6637 14.0556 11.9362 13.8652 12.1358C13.7787 12.2267 13.6702 12.2995 13.5475 12.349C13.4249 12.3985 13.2912 12.4234 13.1562 12.4219V12.4219Z" fill="white"/>
</g>
<defs>
<clipPath id="clip0_8_257">
<rect width="15" height="13.1498" fill="white" transform="translate(0.5 0.0947266)"/>
</clipPath>
</defs>
</svg>
