<svg width="26" height="26" viewBox="0 0 26 26" fill="none" xmlns="http://www.w3.org/2000/svg">
<path d="M24.9123 11.1428L23.0118 9.23994C22.6868 8.91445 22.4242 8.27599 22.4242 7.82532V5.12126C22.4242 4.01961 21.524 3.11825 20.4237 3.11825H17.7355C17.2854 3.11825 16.6478 2.85536 16.3227 2.52987L14.4222 0.627015C13.647 -0.14915 12.3717 -0.14915 11.5965 0.627015L9.67103 2.52987C9.35846 2.85536 8.7208 3.11825 8.25818 3.11825H5.57001C4.46974 3.11825 3.56951 4.01961 3.56951 5.12126V7.8128C3.56951 8.26347 3.30695 8.90193 2.98187 9.22742L1.08139 11.1303C0.306202 11.9064 0.306202 13.1833 1.08139 13.9595L2.98187 15.8624C3.30695 16.1879 3.56951 16.8263 3.56951 17.277V19.9685C3.56951 21.0702 4.46974 21.9715 5.57001 21.9715H8.25818C8.70829 21.9715 9.34595 22.2344 9.67103 22.5599L11.5715 24.4628C12.3467 25.2389 13.622 25.2389 14.3972 24.4628L16.2977 22.5599C16.6228 22.2344 17.2604 21.9715 17.7105 21.9715H20.3987C21.499 21.9715 22.3992 21.0702 22.3992 19.9685V17.277C22.3992 16.8263 22.6618 16.1879 22.9868 15.8624L24.8873 13.9595C25.7 13.1959 25.7 11.9189 24.9123 11.1428ZM7.99562 8.80178C7.99562 8.11325 8.55826 7.5499 9.24593 7.5499C9.9336 7.5499 10.4962 8.11325 10.4962 8.80178C10.4962 9.49031 9.9461 10.0537 9.24593 10.0537C8.55826 10.0537 7.99562 9.49031 7.99562 8.80178ZM9.90859 16.9765C9.72105 17.1643 9.48349 17.2519 9.24593 17.2519C9.00837 17.2519 8.77081 17.1643 8.58326 16.9765C8.22067 16.6135 8.22067 16.0126 8.58326 15.6495L16.0851 8.13829C16.4477 7.77524 17.0479 7.77524 17.4104 8.13829C17.773 8.50133 17.773 9.10223 17.4104 9.46528L9.90859 16.9765ZM16.7478 17.5649C16.0476 17.5649 15.485 17.0016 15.485 16.313C15.485 15.6245 16.0476 15.0612 16.7353 15.0612C17.423 15.0612 17.9856 15.6245 17.9856 16.313C17.9856 17.0016 17.4355 17.5649 16.7478 17.5649Z" fill="#0075FF"/>
</svg>
